<svg width="20" height="21" viewBox="0 0 20 21" fill="none" xmlns="http://www.w3.org/2000/svg">
<path fill-rule="evenodd" clip-rule="evenodd" d="M2.34914 3.62891H17.6522C18.489 3.62891 19.1673 4.3782 19.1673 5.30251V15.3441C19.1673 16.2684 18.489 17.0177 17.6522 17.0177H2.34914C1.51234 17.0177 0.833984 16.2684 0.833984 15.3441V5.30251C0.833984 4.3782 1.51234 3.62891 2.34914 3.62891ZM2.50065 5.30251V15.3441H17.5007V5.30251H2.50065ZM4.16732 11.9969V13.6705H5.83399V11.9969H4.16732ZM6.66732 13.6705V11.9969H9.16732V13.6705H6.66732ZM14.1673 11.9969V13.6705H15.834V11.9969H14.1673ZM11.6673 13.6705V11.9969H13.334V13.6705H11.6673ZM6.66732 7.81291H4.16732V10.3233H6.66732V7.81291Z" fill="url(#paint0_linear_905_2293)"/>
<defs>
<linearGradient id="paint0_linear_905_2293" x1="10.0007" y1="3.62891" x2="10.0007" y2="17.0177" gradientUnits="userSpaceOnUse">
<stop stop-color="#252525"/>
<stop offset="1" stop-color="#2C2C2C"/>
</linearGradient>
</defs>
</svg>
